<mxfile host="65bd71144e">
    <diagram id="BIMks9NMqEgkSlp4Bisp" name="version_1">
        <mxGraphModel dx="921" dy="303" grid="1" gridSize="10" guides="1" tooltips="1" connect="1" arrows="1" fold="1" page="1" pageScale="1" pageWidth="850" pageHeight="1100" background="#ffffff" math="0" shadow="0">
            <root>
                <mxCell id="0"/>
                <mxCell id="1" parent="0"/>
                <mxCell id="62" value="&lt;font style=&quot;font-size: 16px;&quot; color=&quot;#000000&quot;&gt;&lt;b&gt;Study&lt;/b&gt;&lt;/font&gt;" style="swimlane;fontStyle=0;childLayout=stackLayout;horizontal=1;startSize=26;fillColor=#3333FF;horizontalStack=0;resizeParent=1;resizeParentMax=0;resizeLast=0;collapsible=1;marginBottom=0;html=1;rounded=0;shadow=0;glass=0;sketch=0;strokeColor=#10739e;strokeWidth=2;" parent="1" vertex="1">
                    <mxGeometry x="225" y="90" width="200" height="104" as="geometry"/>
                </mxCell>
                <mxCell id="63" value="&lt;font style=&quot;font-size: 14px;&quot; color=&quot;#000000&quot;&gt;id&lt;/font&gt;" style="text;strokeColor=#3333FF;fillColor=none;align=left;verticalAlign=top;spacingLeft=4;spacingRight=4;overflow=hidden;rotatable=0;points=[[0,0.5],[1,0.5]];portConstraint=eastwest;whiteSpace=wrap;html=1;rounded=0;shadow=0;glass=0;sketch=0;strokeWidth=2;" parent="62" vertex="1">
                    <mxGeometry y="26" width="200" height="26" as="geometry"/>
                </mxCell>
                <mxCell id="65" value="&lt;font color=&quot;#000000&quot; style=&quot;font-size: 14px;&quot;&gt;theme&lt;/font&gt;" style="text;strokeColor=#3333FF;fillColor=none;align=left;verticalAlign=top;spacingLeft=4;spacingRight=4;overflow=hidden;rotatable=0;points=[[0,0.5],[1,0.5]];portConstraint=eastwest;whiteSpace=wrap;html=1;rounded=0;shadow=0;glass=0;sketch=0;strokeWidth=2;" parent="62" vertex="1">
                    <mxGeometry y="52" width="200" height="26" as="geometry"/>
                </mxCell>
                <mxCell id="66" value="&lt;font color=&quot;#000000&quot; style=&quot;font-size: 14px;&quot;&gt;passed&lt;/font&gt;" style="text;strokeColor=#3333FF;fillColor=none;align=left;verticalAlign=top;spacingLeft=4;spacingRight=4;overflow=hidden;rotatable=0;points=[[0,0.5],[1,0.5]];portConstraint=eastwest;whiteSpace=wrap;html=1;rounded=0;shadow=0;glass=0;sketch=0;strokeWidth=2;" parent="62" vertex="1">
                    <mxGeometry y="78" width="200" height="26" as="geometry"/>
                </mxCell>
            </root>
        </mxGraphModel>
    </diagram>
    <diagram id="9-wxITAPVDeSmRN7mQrW" name="version_2">
        <mxGraphModel dx="921" dy="303" grid="1" gridSize="10" guides="1" tooltips="1" connect="1" arrows="1" fold="1" page="1" pageScale="1" pageWidth="850" pageHeight="1100" background="#ffffff" math="0" shadow="0">
            <root>
                <mxCell id="0"/>
                <mxCell id="1" parent="0"/>
                <mxCell id="etO9UjCzwEG65KLYg26w-1" value="&lt;font style=&quot;font-size: 16px;&quot; color=&quot;#000000&quot;&gt;&lt;b&gt;Study&lt;/b&gt;&lt;/font&gt;" style="swimlane;fontStyle=0;childLayout=stackLayout;horizontal=1;startSize=26;fillColor=#3333FF;horizontalStack=0;resizeParent=1;resizeParentMax=0;resizeLast=0;collapsible=1;marginBottom=0;html=1;rounded=0;shadow=0;glass=0;sketch=0;strokeColor=#10739e;strokeWidth=2;" parent="1" vertex="1">
                    <mxGeometry x="550" y="90" width="200" height="78" as="geometry">
                        <mxRectangle x="550" y="90" width="80" height="30" as="alternateBounds"/>
                    </mxGeometry>
                </mxCell>
                <mxCell id="etO9UjCzwEG65KLYg26w-2" value="&lt;font style=&quot;font-size: 14px;&quot; color=&quot;#000000&quot;&gt;id&lt;/font&gt;" style="text;strokeColor=#3333FF;fillColor=none;align=left;verticalAlign=top;spacingLeft=4;spacingRight=4;overflow=hidden;rotatable=0;points=[[0,0.5],[1,0.5]];portConstraint=eastwest;whiteSpace=wrap;html=1;rounded=0;shadow=0;glass=0;sketch=0;strokeWidth=2;" parent="etO9UjCzwEG65KLYg26w-1" vertex="1">
                    <mxGeometry y="26" width="200" height="26" as="geometry"/>
                </mxCell>
                <mxCell id="etO9UjCzwEG65KLYg26w-3" value="&lt;font color=&quot;#000000&quot; style=&quot;font-size: 14px;&quot;&gt;theme&lt;/font&gt;" style="text;strokeColor=#3333FF;fillColor=none;align=left;verticalAlign=top;spacingLeft=4;spacingRight=4;overflow=hidden;rotatable=0;points=[[0,0.5],[1,0.5]];portConstraint=eastwest;whiteSpace=wrap;html=1;rounded=0;shadow=0;glass=0;sketch=0;strokeWidth=2;" parent="etO9UjCzwEG65KLYg26w-1" vertex="1">
                    <mxGeometry y="52" width="200" height="26" as="geometry"/>
                </mxCell>
                <mxCell id="etO9UjCzwEG65KLYg26w-5" value="&lt;font color=&quot;#000000&quot;&gt;&lt;span style=&quot;font-size: 16px;&quot;&gt;&lt;b&gt;User&lt;/b&gt;&lt;/span&gt;&lt;/font&gt;" style="swimlane;fontStyle=0;childLayout=stackLayout;horizontal=1;startSize=26;fillColor=#3333FF;horizontalStack=0;resizeParent=1;resizeParentMax=0;resizeLast=0;collapsible=1;marginBottom=0;html=1;rounded=0;shadow=0;glass=0;sketch=0;strokeColor=#10739e;strokeWidth=2;" parent="1" vertex="1">
                    <mxGeometry x="140" y="90" width="200" height="104" as="geometry">
                        <mxRectangle x="140" y="90" width="80" height="30" as="alternateBounds"/>
                    </mxGeometry>
                </mxCell>
                <mxCell id="etO9UjCzwEG65KLYg26w-6" value="&lt;font style=&quot;font-size: 14px;&quot; color=&quot;#000000&quot;&gt;id&lt;/font&gt;" style="text;strokeColor=#3333FF;fillColor=none;align=left;verticalAlign=top;spacingLeft=4;spacingRight=4;overflow=hidden;rotatable=0;points=[[0,0.5],[1,0.5]];portConstraint=eastwest;whiteSpace=wrap;html=1;rounded=0;shadow=0;glass=0;sketch=0;strokeWidth=2;" parent="etO9UjCzwEG65KLYg26w-5" vertex="1">
                    <mxGeometry y="26" width="200" height="26" as="geometry"/>
                </mxCell>
                <mxCell id="etO9UjCzwEG65KLYg26w-7" value="&lt;font color=&quot;#000000&quot; style=&quot;font-size: 14px;&quot;&gt;name&lt;/font&gt;" style="text;strokeColor=#3333FF;fillColor=none;align=left;verticalAlign=top;spacingLeft=4;spacingRight=4;overflow=hidden;rotatable=0;points=[[0,0.5],[1,0.5]];portConstraint=eastwest;whiteSpace=wrap;html=1;rounded=0;shadow=0;glass=0;sketch=0;strokeWidth=2;" parent="etO9UjCzwEG65KLYg26w-5" vertex="1">
                    <mxGeometry y="52" width="200" height="26" as="geometry"/>
                </mxCell>
                <mxCell id="etO9UjCzwEG65KLYg26w-8" value="&lt;font color=&quot;#000000&quot; style=&quot;font-size: 14px;&quot;&gt;last_theme&lt;/font&gt;" style="text;strokeColor=#3333FF;fillColor=none;align=left;verticalAlign=top;spacingLeft=4;spacingRight=4;overflow=hidden;rotatable=0;points=[[0,0.5],[1,0.5]];portConstraint=eastwest;whiteSpace=wrap;html=1;rounded=0;shadow=0;glass=0;sketch=0;strokeWidth=2;" parent="etO9UjCzwEG65KLYg26w-5" vertex="1">
                    <mxGeometry y="78" width="200" height="26" as="geometry"/>
                </mxCell>
                <mxCell id="etO9UjCzwEG65KLYg26w-10" style="edgeStyle=none;html=1;exitX=1;exitY=0.5;exitDx=0;exitDy=0;entryX=0;entryY=0.5;entryDx=0;entryDy=0;fontSize=14;fontColor=#000000;strokeWidth=6;strokeColor=#3333FF;" parent="1" source="etO9UjCzwEG65KLYg26w-8" target="etO9UjCzwEG65KLYg26w-2" edge="1">
                    <mxGeometry relative="1" as="geometry">
                        <Array as="points">
                            <mxPoint x="440" y="180"/>
                            <mxPoint x="440" y="129"/>
                        </Array>
                    </mxGeometry>
                </mxCell>
            </root>
        </mxGraphModel>
    </diagram>
</mxfile>